HIERARCHY
ROOT root
{
	OFFSET 0.000000 0.000000 0.000000
	CHANNELS 6 Xposition Yposition Zposition Zrotation Yrotation Xrotation
	JOINT lhip
	{
		OFFSET 0.058581 -0.082280 -0.017664
		CHANNELS 3 Zrotation Yrotation Xrotation
		JOINT lknee
		{
			OFFSET 0.043451 -0.386469 0.008037
			CHANNELS 3 Zrotation Yrotation Xrotation
			JOINT lankle
			{
				OFFSET -0.014790 -0.426874 -0.037428
				CHANNELS 3 Zrotation Yrotation Xrotation
				JOINT ltoe
				{
					OFFSET 0.041054 -0.060286 0.122042
					CHANNELS 3 Zrotation Yrotation Xrotation
					End Site
					{
						OFFSET 0.000000 0.000000 0.000000
					}
				}
			}
		}
	}
	JOINT rhip
	{
		OFFSET -0.060310 -0.090513 -0.013543
		CHANNELS 3 Zrotation Yrotation Xrotation
		JOINT rknee
		{
			OFFSET -0.043257 -0.383688 -0.004843
			CHANNELS 3 Zrotation Yrotation Xrotation
			JOINT rankle
			{
				OFFSET 0.019056 -0.420046 -0.034562
				CHANNELS 3 Zrotation Yrotation Xrotation
				JOINT rtoe
				{
					OFFSET -0.034840 -0.062106 0.130323
					CHANNELS 3 Zrotation Yrotation Xrotation
					End Site
					{
						OFFSET 0.000000 0.000000 0.000000
					}
				}
			}
		}
	}
	JOINT lowerback
	{
		OFFSET 0.004439 0.124404 -0.038385
		CHANNELS 3 Zrotation Yrotation Xrotation
		JOINT upperback
		{
			OFFSET 0.004488 0.137956 0.026820
			CHANNELS 3 Zrotation Yrotation Xrotation
			JOINT chest
			{
				OFFSET -0.002265 0.056032 0.002855
				CHANNELS 3 Zrotation Yrotation Xrotation
				JOINT lowerneck
				{
					OFFSET -0.013390 0.211636 -0.033468
					CHANNELS 3 Zrotation Yrotation Xrotation
					JOINT upperneck
					{
						OFFSET 0.010113 0.088937 0.050410
						CHANNELS 3 Zrotation Yrotation Xrotation
						End Site
						{
							OFFSET 0.000000 0.000000 0.000000
						}
					}
				}
				JOINT lclavicle
				{
					OFFSET 0.071702 0.114000 -0.018898
					CHANNELS 3 Zrotation Yrotation Xrotation
					JOINT lshoulder
					{
						OFFSET 0.122921 0.045205 -0.019046
						CHANNELS 3 Zrotation Yrotation Xrotation
						JOINT lelbow
						{
							OFFSET 0.255332 -0.015649 -0.022946
							CHANNELS 3 Zrotation Yrotation Xrotation
							JOINT lwrist
							{
								OFFSET 0.265709 0.012698 -0.007375
								CHANNELS 3 Zrotation Yrotation Xrotation
								End Site
								{
									OFFSET 0.000000 0.000000 0.000000
								}
							}
						}
					}
				}
				JOINT rclavicle
				{
					OFFSET -0.082954 0.112472 -0.023707
					CHANNELS 3 Zrotation Yrotation Xrotation
					JOINT rshoulder
					{
						OFFSET -0.113228 0.046853 -0.008472
						CHANNELS 3 Zrotation Yrotation Xrotation
						JOINT relbow
						{
							OFFSET -0.260127 -0.014369 -0.031269
							CHANNELS 3 Zrotation Yrotation Xrotation
							JOINT rwrist
							{
								OFFSET -0.269108 0.006794 -0.006027
								CHANNELS 3 Zrotation Yrotation Xrotation
								End Site
								{
									OFFSET 0.000000 0.000000 0.000000
								}
							}
						}
					}
				}
			}
		}
	}
}
MOTION
Frames: 13
Frame Time: 0.033333
-0.435030 0.799268 0.769076 95.042420 0.470021 76.217226 5.048736 -2.217346 -32.514192 -18.518144 -4.400311 83.853013 10.493200 17.384109 -38.086579 0.000000 -0.000000 0.000000 -6.233287 -4.619237 -30.621435 6.819650 -1.375547 85.003653 4.403609 -12.205530 -40.415723 0.000000 -0.000000 0.000000 -0.089049 3.861693 32.283745 3.378654 -3.787576 -0.531215 0.730295 -0.657309 7.373369 2.561422 3.986606 14.597048 0.519474 -5.447166 13.553646 11.938566 -27.205116 -14.839816 -13.631374 -27.969918 -1.892110 -0.464381 -61.917137 27.132704 22.236849 -10.291895 8.596113 -12.375745 24.321294 -15.092397 15.229828 29.248783 -5.190881 -0.642214 58.028539 25.033018 -8.049940 6.236897 9.484520 
-0.435565 0.799082 0.768826 95.111098 0.450471 76.166764 5.040586 -2.322571 -32.553386 -18.496219 -4.353648 83.892877 10.448893 17.335008 -38.033581 0.000000 -0.000000 0.000000 -6.299877 -4.591847 -30.606593 6.757722 -1.451624 85.054368 4.427101 -12.154627 -40.434483 0.000000 -0.000000 0.000000 -0.071092 3.841038 32.474688 3.387129 -3.828559 -0.547304 0.757528 -0.565442 7.348350 2.601061 3.684121 14.390385 0.628985 -5.744591 13.141265 12.099753 -27.231056 -14.881257 -13.835527 -28.035465 -1.904886 -0.016761 -62.122723 26.999314 21.851832 -10.335879 8.628787 -12.631147 24.294113 -15.213743 15.546420 28.986914 -5.151001 -1.234965 58.515424 24.873536 -7.800358 5.976713 9.159894 
-0.435864 0.798541 0.768495 95.064848 0.505195 76.134350 5.094222 -2.190572 -32.569354 -18.515807 -4.460017 83.962994 10.456912 17.293011 -38.083840 0.000000 -0.000000 0.000000 -6.157326 -4.575448 -30.631446 6.700056 -1.434330 85.023188 4.382275 -12.332647 -40.513340 0.000000 -0.000000 0.000000 -0.016873 3.730660 32.365225 3.331771 -3.787188 -0.515991 0.700320 -0.731914 7.608971 2.552720 3.617146 14.102041 0.703828 -5.610118 12.858402 12.162842 -27.096447 -15.002515 -13.681711 -28.041365 -1.886323 -0.459380 -62.104704 27.179687 22.402338 -10.275081 8.877026 -12.635629 24.419171 -15.523256 15.038306 29.432513 -5.153441 -0.294571 57.989438 25.057493 -8.347396 6.625841 9.469346 
-0.436584 0.798377 0.768524 95.074046 0.409227 76.168984 4.984385 -2.242724 -32.649123 -18.476090 -4.455200 83.899964 10.402596 17.282527 -38.081761 0.000000 -0.000000 0.000000 -6.239924 -4.520359 -30.752077 6.806252 -1.413854 85.097116 4.467821 -12.276554 -40.374330 0.000000 -0.000000 0.000000 -0.108324 3.748579 32.464147 3.375672 -3.838928 -0.625779 0.728836 -0.797994 7.596756 2.598263 3.499977 13.832302 0.625729 -5.916732 12.577042 12.173079 -26.979929 -15.005029 -13.724343 -27.935879 -1.784548 -0.382203 -62.273621 27.402977 22.276626 -10.471818 8.890308 -12.643024 24.353014 -15.633614 15.307839 29.588589 -5.045960 -0.396263 58.291929 25.333331 -7.884908 6.283699 9.200142 
-0.436847 0.798050 0.768490 95.175202 0.438021 76.195898 5.007759 -2.320972 -32.718551 -18.476918 -4.483809 83.937924 10.447653 17.215263 -38.004254 0.000000 -0.000000 0.000000 -6.212106 -4.593022 -30.787675 6.803173 -1.450377 85.090506 4.446957 -12.294021 -40.344656 0.000000 -0.000000 0.000000 -0.074160 3.718077 32.400575 3.396788 -3.897957 -0.605420 0.784757 -0.789114 7.647258 2.589209 3.441723 13.578122 0.587882 -5.914621 12.251403 12.185688 -26.958884 -15.030094 -13.703771 -27.992371 -1.763404 -0.506964 -62.263352 27.745509 22.306336 -10.646062 8.905134 -12.751981 24.341488 -15.612641 15.248344 29.449414 -4.934077 -0.298687 58.465782 25.569809 -8.678328 6.734405 9.126035 
-0.437225 0.797688 0.768815 95.156272 0.426185 76.269546 5.045709 -2.296607 -32.771837 -18.448403 -4.476614 83.812731 10.442466 17.203376 -37.963106 0.000000 -0.000000 0.000000 -6.187541 -4.610409 -30.892344 6.785606 -1.401888 85.063924 4.394283 -12.203254 -40.202452 0.000000 -0.000000 0.000000 -0.076424 3.753823 32.296209 3.394015 -3.887127 -0.524067 0.799924 -0.760412 7.667167 2.685276 3.484918 13.230720 0.718930 -6.037293 11.923359 12.244125 -26.987788 -15.225587 -13.596649 -28.122427 -1.739509 -1.029981 -62.124238 28.136667 22.036100 -10.707854 8.983629 -12.717216 24.175681 -15.721808 15.091672 29.474187 -4.928117 0.302225 58.564192 26.094229 -8.656654 6.917256 9.181594 
-0.437597 0.797467 0.769467 95.244781 0.401052 76.257662 4.967039 -2.330707 -32.738096 -18.401037 -4.567537 83.708662 10.445547 17.187502 -37.918844 0.000000 -0.000000 0.000000 -6.228627 -4.701055 -30.815419 6.745997 -1.398399 84.854545 4.369519 -12.194841 -40.179973 0.000000 -0.000000 0.000000 -0.038129 3.697632 32.318621 3.389929 -3.982735 -0.540401 0.759722 -0.843837 7.654944 2.782011 3.493848 12.940971 0.771777 -5.994819 11.520663 12.225994 -26.976097 -15.291742 -13.554435 -28.082547 -1.614747 -1.262890 -61.986623 28.439698 22.099577 -10.936106 9.039822 -12.667202 24.292222 -15.645027 14.978699 29.618267 -4.912599 0.437520 58.384781 26.098842 -8.890828 7.004267 9.285279 
-0.437467 0.797036 0.770206 95.205732 0.400854 76.234114 5.032547 -2.265591 -32.605379 -18.248558 -4.608681 83.439489 10.481973 17.044115 -37.899586 0.000000 -0.000000 0.000000 -6.167831 -4.758809 -30.709874 6.724542 -1.307358 84.608679 4.358201 -12.289054 -40.102972 0.000000 -0.000000 0.000000 0.021513 3.699667 32.206738 3.360297 -4.011063 -0.424057 0.791822 -0.813803 7.780642 2.669770 3.384355 12.627675 0.692848 -5.891367 11.165310 12.442238 -27.032247 -15.526248 -13.649110 -28.168529 -1.533436 -1.783611 -61.563959 28.915916 22.601217 -11.064232 9.250529 -12.895629 24.287190 -15.862875 15.072437 29.493335 -4.689826 0.901109 58.166881 26.790417 -9.400755 7.548938 9.903021 
-0.438063 0.796699 0.770995 95.186733 0.366400 76.173368 4.919335 -2.229612 -32.521244 -18.283153 -4.774053 83.316292 10.312369 17.017442 -37.749429 0.000000 -0.000000 0.000000 -6.156575 -4.717300 -30.625924 6.709337 -1.250237 84.477010 4.445309 -12.167208 -39.938007 0.000000 -0.000000 0.000000 -0.019649 3.720081 32.404758 3.354979 -4.063096 -0.412596 0.851666 -0.721061 7.619299 2.602338 3.413279 12.115497 1.016712 -5.978646 10.343610 12.825518 -27.170074 -15.672497 -13.535256 -28.049050 -1.379823 -2.589478 -61.289291 29.919753 23.004874 -11.290203 9.275865 -13.118662 24.335788 -16.074052 15.448436 29.533971 -4.793810 0.966050 58.138540 26.628615 -9.324167 7.089834 9.344446 
-0.438278 0.796527 0.771640 95.249882 0.429467 76.257489 4.894324 -2.158556 -32.570927 -18.237877 -4.977736 83.191739 10.345404 16.942413 -37.635358 0.000000 -0.000000 0.000000 -6.125905 -4.723486 -30.668865 6.677938 -1.336760 84.304624 4.493101 -12.151183 -39.815246 0.000000 -0.000000 0.000000 0.058097 3.682299 32.251028 3.373543 -4.070962 -0.300379 0.899938 -0.697202 7.694220 2.620189 3.478791 11.632337 0.910480 -5.692583 9.765970 12.889450 -27.346844 -15.841914 -13.562475 -28.303193 -1.369024 -2.537832 -60.830109 30.140431 22.523990 -11.416764 9.861076 -13.291439 24.468515 -16.167218 15.408162 29.397959 -4.726138 0.608591 58.062910 26.378099 -9.113598 7.426212 9.631363 
-0.438909 0.796483 0.771954 95.235324 0.371700 76.281744 4.776782 -2.138218 -32.584657 -18.174917 -5.065387 83.089915 10.359930 17.053610 -37.532513 0.000000 -0.000000 0.000000 -6.143964 -4.817912 -30.754537 6.695620 -1.209743 84.296976 4.434408 -12.078249 -39.731943 0.000000 -0.000000 0.000000 0.116388 3.740210 32.102225 3.331478 -4.123158 -0.099188 0.870242 -0.797307 7.652145 2.637702 3.607440 11.426521 1.033252 -5.385855 9.245515 12.978726 -27.649582 -15.774862 -13.143938 -28.136790 -1.557013 -2.932583 -60.720531 30.797330 22.178030 -11.425859 10.883059 -13.368761 24.576561 -16.338328 15.590495 29.513385 -4.748360 0.760017 57.940222 26.659608 -8.711057 7.325411 9.637810 
-0.439546 0.796646 0.772313 95.168939 0.358467 76.291618 4.734847 -2.164990 -32.599392 -18.123091 -5.072848 83.064145 10.265572 16.939303 -37.528133 0.000000 -0.000000 0.000000 -6.210223 -4.807653 -30.804570 6.587393 -1.258966 84.170033 4.502606 -12.013508 -39.614176 0.000000 -0.000000 0.000000 0.128838 3.698964 32.258650 3.302723 -4.097932 -0.292270 0.881393 -0.804066 7.599420 2.679216 3.835914 11.043821 0.882219 -5.164085 9.160132 12.905467 -27.707631 -15.732977 -13.058045 -28.088657 -1.496382 -2.877433 -60.606412 31.430985 21.900957 -12.462197 10.941148 -13.363819 24.775668 -16.268938 15.493166 29.622398 -4.749868 0.797358 57.804855 26.834524 -8.592984 7.419378 9.472633 
-0.439891 0.796739 0.772493 95.117679 0.417992 76.237990 4.775883 -2.166461 -32.548706 -18.105258 -5.083462 83.106905 10.318514 16.991233 -37.545125 0.000000 -0.000000 0.000000 -6.172367 -4.809483 -30.738032 6.668720 -1.266951 84.132653 4.459361 -11.925540 -39.511541 0.000000 -0.000000 0.000000 0.207231 3.684681 32.369157 3.285278 -4.102619 -0.298476 0.916848 -0.822496 7.510523 2.659062 4.094306 10.811687 0.836479 -4.807957 9.104340 12.863466 -27.844809 -15.894556 -13.221409 -28.144462 -1.591983 -3.008572 -60.579724 31.316262 21.529433 -11.721649 11.501139 -13.390733 24.880022 -16.277727 15.463589 29.664998 -4.751940 0.964897 57.966864 26.978961 -8.424383 7.225907 9.672667 
